<svg xmlns="http://www.w3.org/2000/svg" width="27" height="24" viewBox="0 0 27 24"><g><g opacity=".52" transform="rotate(-90 13.5 12)"><path d="M24.96-.198a1.093 1.093 0 0 0-1.055-.795l-.183-.002c-.83-.014-3.015-.05-5.716.733A14.596 14.596 0 0 0 7.487 13.087H3.095c-.442 0-.843.263-1.012.668-.17.405-.075.87.238 1.18l9.857 9.748c.214.21.494.317.774.317s.561-.106.775-.317l9.857-9.748c.313-.31.407-.775.237-1.18a1.094 1.094 0 0 0-1.012-.668h-5.636c-.209-2.106.005-7.779 7.292-12.066.423-.25.627-.748.495-1.219z"/></g></g></svg>