<svg xmlns="http://www.w3.org/2000/svg" width="11" height="13" viewBox="0 0 11 13" fill="#353535">
    <g>
        <g opacity=".4">
            <g>
                <path d="M3.978 7a.26.26 0 0 0-.255-.265h-.89A.26.26 0 0 0 2.578 7v.927a.26.26 0 0 0 .255.266h.89a.26.26 0 0 0 .255-.266V7z"/>
            </g>
            <g>
                <path d="M6.201 7a.26.26 0 0 0-.254-.265h-.89A.26.26 0 0 0 4.802 7v.927a.26.26 0 0 0 .255.266h.89a.26.26 0 0 0 .254-.266z"/>
            </g>
            <g>
                <path d="M8.425 7a.26.26 0 0 0-.255-.265h-.89A.26.26 0 0 0 7.027 7v.927a.26.26 0 0 0 .255.266h.89a.26.26 0 0 0 .254-.266z"/>
            </g>
            <g>
                <path d="M3.978 9.318a.26.26 0 0 0-.255-.265h-.89a.26.26 0 0 0-.255.265v.928a.26.26 0 0 0 .255.265h.89a.26.26 0 0 0 .255-.265v-.928z"/>
            </g>
            <g>
                <path d="M6.201 9.318a.26.26 0 0 0-.254-.265h-.89a.26.26 0 0 0-.255.265v.928a.26.26 0 0 0 .255.265h.89a.26.26 0 0 0 .254-.265z"/>
            </g>
            <g>
                <path d="M8.425 9.318a.26.26 0 0 0-.254-.265h-.89a.26.26 0 0 0-.255.265v.928a.26.26 0 0 0 .255.265h.89a.26.26 0 0 0 .254-.265v-.928z"/>
            </g>
            <g>
                <path d="M9.255 11.13H1.73a.445.445 0 0 1-.435-.453V6.389c0-.25.195-.454.435-.454h7.526c.24 0 .435.203.435.454v4.288c0 .25-.195.454-.435.454zm.761-9.286V3.26c0 .64-.498 1.156-1.112 1.156h-.702c-.614 0-1.119-.516-1.119-1.156V1.84H3.92V3.26c0 .64-.505 1.156-1.119 1.156H2.1C1.485 4.416.987 3.9.987 3.26V1.844C.45 1.86.01 2.324.01 2.893v8.3c0 .58.451 1.057 1.007 1.057h8.971c.555 0 1.007-.477 1.007-1.056V2.893c0-.57-.441-1.032-.978-1.05z"/>
            </g>
            <g>
                <path d="M2.097 3.657h.694a.39.39 0 0 0 .382-.397V.938A.39.39 0 0 0 2.79.54h-.694a.39.39 0 0 0-.381.398V3.26c0 .22.17.397.381.397z"/>
            </g>
            <g>
                <path d="M8.193 3.657h.694a.39.39 0 0 0 .382-.397V.938A.39.39 0 0 0 8.887.54h-.694a.39.39 0 0 0-.381.398V3.26c0 .22.17.397.381.397z"/>
            </g>
        </g>
    </g>
</svg>