<svg width="14px" height="14px" viewBox="0 0 14 14" version="1.1" xmlns="http://www.w3.org/2000/svg"
     xmlns:xlink="http://www.w3.org/1999/xlink">
    <g id="Welcome" stroke="none" stroke-width="1" fill="none" fill-rule="evenodd">
        <g id="Desktop-about" transform="translate(-28.000000, -996.000000)" fill="#000000">
            <g id="legal-hammer" transform="translate(28.000000, 996.000000)">
                <g id="Path">

                    <path d="M13.6783394,11.3455717 L10.7471919,8.41445253 C10.5374465,8.21525657 10.2922909,8.11558788 10.0123758,8.11558788 C9.72705859,8.11558788 9.46872323,8.23134949 9.23739798,8.46284444 L7.17029091,6.39573737 L8.18790707,5.37823434 C8.26322424,5.30280404 8.30095354,5.21133737 8.30095354,5.10360808 C8.30095354,4.99596364 8.26322424,4.9044404 8.18790707,4.82906667 C8.1985697,4.83984242 8.23089697,4.87344242 8.28471919,4.93006465 C8.33851313,4.9866303 8.37358384,5.0202303 8.38993131,5.03106263 C8.40608081,5.04175354 8.43696566,5.06862222 8.48264242,5.11175354 C8.52860202,5.15477172 8.56469091,5.18175354 8.59170101,5.19244444 C8.61879596,5.20313535 8.65519596,5.21931313 8.70107071,5.24089293 C8.74674747,5.26241616 8.79109495,5.2771798 8.83425455,5.28529697 C8.87730101,5.29332929 8.92580606,5.29740202 8.97962828,5.29740202 C9.18405657,5.29740202 9.36718788,5.22202828 9.52862626,5.07128081 C9.54486061,5.05513131 9.59328081,5.01075556 9.674,4.93801212 C9.75491717,4.86521212 9.80989899,4.81421818 9.83959596,4.78454949 C9.86920808,4.75493737 9.91372525,4.70518788 9.97297778,4.63521616 C10.0321172,4.56521616 10.0739192,4.50596364 10.0981293,4.45751515 C10.1222545,4.40912323 10.1464364,4.34987071 10.1708162,4.27989899 C10.194998,4.20992727 10.2069899,4.13992727 10.2069899,4.06995556 C10.2069899,3.8546101 10.1316162,3.67153535 9.98089697,3.52078788 L6.68634343,0.226347475 C6.53559596,0.0756 6.35254949,0.000254545455 6.13728889,0.000254545455 C6.06731717,0.000254545455 5.99734545,0.012359596 5.92726061,0.0365414141 C5.85726061,0.0606949495 5.79809293,0.084989899 5.74964444,0.109171717 C5.70116768,0.133353535 5.642,0.17509899 5.57202828,0.234379798 C5.50205657,0.29360404 5.45230707,0.338036364 5.42263838,0.367648485 C5.39302626,0.397317172 5.34189091,0.45249697 5.26923232,0.533159596 C5.19648889,0.613935354 5.15205657,0.662412121 5.13596364,0.678589899 C4.98530101,0.840028283 4.90987071,1.02310303 4.90987071,1.22767273 C4.90987071,1.28149495 4.91394343,1.32994343 4.92206061,1.37296162 C4.93020606,1.41609293 4.94494141,1.46046869 4.96649293,1.50628687 C4.98798788,1.55204848 5.00413737,1.58839192 5.01494141,1.61526061 C5.02563232,1.64212929 5.05250101,1.67861414 5.09560404,1.72437576 C5.13873535,1.77005253 5.16560404,1.80107879 5.1763798,1.81725657 C5.18707071,1.83351919 5.22081212,1.8684202 5.27726465,1.92232727 C5.3338303,1.97612121 5.36757172,2.00856162 5.37826263,2.01925253 C5.30291717,1.94382222 5.21136566,1.90614949 5.10372121,1.90614949 C4.99607677,1.90614949 4.90452525,1.94379394 4.8291798,2.01925253 L2.01868687,4.82934949 C1.94325657,4.90475152 1.90558384,4.99624646 1.90558384,5.10389091 C1.90558384,5.2116202 1.94322828,5.30314343 2.01868687,5.37851717 C2.00791111,5.36774141 1.97558384,5.334 1.92176162,5.27751919 C1.86796768,5.22095354 1.83295354,5.18732525 1.81680404,5.17652121 C1.80065455,5.1658303 1.76971313,5.13896162 1.72395152,5.09585859 C1.67816162,5.0528404 1.6417899,5.02588687 1.61492121,5.01516768 C1.58805253,5.00447677 1.55170909,4.98829899 1.50591919,4.96669091 C1.46024242,4.94519596 1.4158101,4.93043232 1.37270707,4.92231515 C1.32968889,4.91428283 1.2812404,4.9102101 1.22741818,4.9102101 C1.02284848,4.9102101 0.839688889,4.98555556 0.678250505,5.13630303 C0.662185859,5.15242424 0.613652525,5.19694141 0.532933333,5.26957172 C0.452157576,5.34231515 0.397090909,5.39336566 0.367422222,5.42303434 C0.337810101,5.45264646 0.293462626,5.50239596 0.234238384,5.57239596 C0.175042424,5.64236768 0.133240404,5.70159192 0.109058586,5.75009697 C0.0848484848,5.79843232 0.0607232323,5.85774141 0.0364282828,5.92771313 C0.0122181818,5.99768485 0,6.06765657 0,6.13765657 C0,6.35300202 0.0753737374,6.53593535 0.226092929,6.68673939 L3.52061818,9.98115152 C3.67136566,10.1318424 3.8544404,10.2071596 4.06970101,10.2071596 C4.13967273,10.2071596 4.20964444,10.1952242 4.27972929,10.1710424 C4.34972929,10.1468606 4.40889697,10.1225657 4.45734545,10.0983838 C4.50579394,10.074202 4.5649899,10.0325697 4.63496162,9.97323232 C4.70493333,9.91389495 4.75468283,9.86957576 4.78429495,9.83985051 C4.81396364,9.81012525 4.86507071,

9.75514343 4.93775758,9.67425455 C5.01050101,9.5936202 5.05487677,9.54514343 5.07102626,9.52888081 C5.22168889,9.36741414 5.29711919,9.18428283 5.29711919,8.97988283 C5.29711919,8.92608889 5.29304646,8.87758384 5.28492929,8.83450909 C5.27678384,8.79134949 5.26204848,8.74700202 5.24049697,8.70112727 C5.21900202,8.65545051 5.20285253,8.61905051 5.19204848,8.59212525 C5.18135758,8.56522828 5.15448889,8.52882828 5.11138586,8.48295354 C5.06825455,8.43727677 5.04138586,8.40630707 5.0306101,8.39004444 C5.01986263,8.37389495 4.98617778,8.33893737 4.92972525,8.28491717 C4.87310303,8.23112323 4.83941818,8.19879596 4.82872727,8.18793535 C4.90404444,8.26342222 4.99565253,8.30109495 5.10326869,8.30109495 C5.21091313,8.30109495 5.30246465,8.26342222 5.3778101,8.18793535 L6.39531313,7.17048889 L8.46239192,9.23759596 C8.23086869,9.46911919 8.11513535,9.72722828 8.11513535,10.0125737 C8.11513535,10.3034061 8.21754747,10.5455071 8.42197576,10.7394424 L11.3532929,13.6787919 C11.5524606,13.8777616 11.7946182,13.9774869 12.0799636,13.9774869 C12.3598505,13.9774869 12.6047515,13.8777899 12.8147798,13.6787919 L13.6787071,12.8065212 C13.877903,12.6073253 13.9776848,12.3651677 13.9776848,12.0798505 C13.9777131,11.8004727 13.8779313,11.555402 13.6783394,11.3455717 Z"></path>
                </g>
            </g>
        </g>
    </g>
</svg>