
<svg width="147px" height="59px" viewBox="0 0 147 59" version="1.1" xmlns="http://www.w3.org/2000/svg" xmlns:xlink="http://www.w3.org/1999/xlink">
    <g id="site" stroke="none" stroke-width="1" fill="none" fill-rule="evenodd">
        <g id="Logo-re-branding" transform="translate(-176.000000, -93.000000)">
            <g id="RUH-LOGO" transform="translate(176.000000, 93.000000)">
                <g id="Ruh-|-Logo-variation-1" fill="#323232" fill-rule="nonzero">
                    <path d="M47.976366,20.7979503 L51.0255498,17.9016455 C53.4133584,15.633556 53.4133584,12.1351108 51.0255498,9.86702128 C48.4047893,7.37765957 43.9936114,7.37765957 41.3728509,9.86702128 L24.3440804,26.042009 L18.7866241,20.2870946 L35.8632749,4.0666271 C41.5716489,-1.35554237 50.8267518,-1.35554237 56.5351258,4.0666271 C62.2434997,9.48879657 62.2434997,18.2798702 56.5351258,23.7020397 L53.7364487,26.3603976 L47.976366,20.7979503 Z M12.7428968,37.0615364 L9.79085647,39.8655683 C7.40304784,42.1336578 7.40304784,45.6321031 9.79085647,47.9001925 C12.411617,50.3895543 16.8227949,50.3895543 19.4435554,47.9001925 L21.6415716,45.8123797 L27.4422372,51.3362789 L24.9531314,53.7005867 C19.2447574,59.1227562 9.98965449,59.1227562 4.2812805,53.7005867 C-1.4270935,48.2784173 -1.4270935,39.4873436 4.2812805,34.0651741 L7.18544048,31.3066219 L12.7428968,37.0615364 Z" id="Combined-Shape"></path>
                    <path d="M33.0658446,30.5635483 L38.7396845,25.1741815 L43.8714155,31.3334763 L38.1975756,36.7228431 L33.0658446,30.5635483 Z M30.1595007,33.3241749 L35.2912317,39.4834697 L34.797769,39.9521914 C29.089395,45.3743609 19.8342921,45.3743609 14.1259181,39.9521914 C8.41754411,34.5300219 8.41754411,25.7389483 14.1259181,20.3167788 L25.6067617,9.41155792 L30.7384927,15.5708528 L19.6354941,26.117173 C17.2476855,28.3852625 17.2476855,31.8837078 19.6354941,34.1517972 C22.2562546,36.6411589 26.6674325,36.6411589 29.288193,34.1517972 L30.1595007,33.3241749 Z" id="Combined-Shape" transform="translate(26.858027, 26.715188) rotate(-94.000000) translate(-26.858027, -26.715188) "></path>
                    <path d="M26.1119475,33.4044352 L20.311282,38.9283344 L9.89755295,29.0367254 L15.6982185,23.5128262 L26.1119475,33.4044352 Z M21.8876712,12.1885948 L19.4435554,9.86702128 C16.8227949,7.37765957 12.411617,7.37765957 9.79085647,9.86702128 C7.40304784,12.1351108 7.40304784,15.633556 9.79085647,17.9016455 L12.7943717,20.7545715 L6.99370611,26.2784706 L4.2812805,23.7020397 C-1.4270935,18.2798702 -1.4270935,9.48879657 4.2812805,4.0666271 C9.98965449,-1.35554237 19.2447574,-1.35554237 24.9531314,4.0666271 L27.6883368,6.66469569 L21.8876712,12.1885948 Z M24.791518,14.9468496 L30.5921836,9.42295043 L36.2042677,14.7536577 L30.4036021,20.2775569 L24.791518,14.9468496 Z M39.1191746,45.7595104 L41.3728509,47.9001925 C43.9936114,50.3895543 48.4047893,50.3895543 51.0255498,47.9001925 C53.4133584,45.6321031 53.4133584,42.1336578 51.0255498,39.8655683 L33.3074489,23.0358116 L39.1081145,17.5119125 L56.5351258,34.0651741 C62.2434997,39.4873436 62.2434997,48.2784173 56.5351258,53.7005867 C50.8267518,59.1227562 41.5716489,59.1227562 35.8632749,53.7005867 L33.3185091,51.2834095 L39.1191746,45.7595104 Z" id="Combined-Shape"></path>
                </g>
                <path d="M71.1234534,42 L70.4124534,42 L73.1664534,35.628 L73.7964534,35.628 L76.5324534,42 L75.8124534,42 L75.1104534,40.326 L71.8164534,40.326 L71.1234534,42 Z M72.0594534,39.732 L74.8674534,39.732 L73.4634534,36.348 L72.0594534,39.732 Z M77.7087346,42 L77.7087346,43.251 L77.0607346,43.251 L77.0607346,41.406 L77.8527346,41.406 L80.0217346,35.628 L80.6517346,35.628 L82.8027346,41.406 L83.5947346,41.406 L83.5947346,43.251 L82.9467346,43.251 L82.9467346,42 L77.7087346,42 Z M78.5007346,41.406 L82.1367346,41.406 L80.3187346,36.348 L78.5007346,41.406 Z M84.8790158,35.628 L86.7780158,35.628 C87.018017,35.628 87.2610146,35.6534997 87.5070158,35.7045 C87.753017,35.7555003 87.9735148,35.8424994 88.1685158,35.9655 C88.3635168,36.0885006 88.5225152,36.254999 88.6455158,36.465 C88.7685164,36.675001 88.8300158,36.9389984 88.8300158,37.257 C88.8300158,37.5930017 88.7280168,37.8854988 88.5240158,38.1345 C88.3200148,38.3835012 88.0470175,38.5469996 87.7050158,38.625 L87.7050158,38.643 C88.1190179,38.6910002 88.4625144,38.8514986 88.7355158,39.1245 C89.0085172,39.3975014 89.1450158,39.7679977 89.1450158,40.236 C89.1450158,40.5000013 89.0895164,40.7414989 88.9785158,40.9605 C88.8675152,41.1795011 88.7100168,41.3654992 88.5060158,41.5185 C88.3020148,41.6715008 88.0530173,41.7899996 87.7590158,41.874 C87.4650143,41.9580004 87.1350176,42 86.7690158,42 L84.8790158,42 L84.8790158,35.628 Z M85.5270158,38.418 L86.8320158,38.418 C86.9880166,38.418 87.145515,38.4000002 87.3045158,38.364 C87.4635166,38.3279998 87.6090151,38.2665004 87.7410158,38.1795 C87.8730165,38.0924996 87.9795154,37.9770007 88.0605158,37.833 C88.1415162,37.6889993 88.1820158,37.512001 88.1820158,37.302 C88.1820158,37.097999 88.1415162,36.9255007 88.0605158,36.7845 C87.9795154,36.6434993 87.8700165,36.5280005 87.7320158,36.438 C87.5940151,36.3479995 87.4320167,36.2835002 87.2460158,36.2445 C87.0600149,36.2054998 86.8620168,36.186 86.6520158,36.186 L85.5270158,36.186 L85.5270158,38.418 Z M85.5270158,41.442 L86.7330158,41.442 C86.967017,41.442 87.1905147,41.4195002 87.4035158,41.3745 C87.6165169,41.3294998 87.802515,41.2575005 87.9615158,41.1585 C88.1205166,41.0594995 88.2480153,40.9305008 88.3440158,40.7715 C88.4400163,40.6124992 88.4880158,40.4220011 88.4880158,40.2 C88.4880158,39.7799979 88.3455172,39.466501 88.0605158,39.2595 C87.7755144,39.052499 87.3720184,38.949 86.8500158,38.949 L85.5270158,38.949 L85.5270158,41.442 Z M97.341297,38.814 C97.341297,39.3000024 97.2572978,39.746998 97.089297,40.155 C96.9212962,40.563002 96.6887985,40.9154985 96.391797,41.2125 C96.0947955,41.5095015 95.743799,41.7419992 95.338797,41.91 C94.933795,42.0780008 94.4942994,42.162 94.020297,42.162 C93.5462946,42.162 93.106799,42.0780008 92.701797,41.91 C92.296795,41.7419992 91.9457985,41.5095015 91.648797,41.2125 C91.3517955,40.9154985 91.1192978,40.563002 90.951297,40.155 C90.7832962,39.746998 90.699297,39.3000024 90.699297,38.814 C90.699297,38.3279976 90.7832962,37.881002 90.951297,37.473 C91.1192978,37.064998 91.3517955,36.7125015 91.648797,36.4155 C91.9457985,36.1184985 92.296795,35.8860008 92.701797,35.718 C93.106799,35.5499992 93.5462946,35.466 94.020297,35.466 C94.4942994,35.466 94.933795,35.5499992 95.338797,35.718 C95.743799,35.8860008 96.0947955,36.1184985 96.391797,36.4155 C96.6887985,36.7125015 96.9212962,37.064998 97.089297,37.473 C97.2572978,37.881002 97.341297,38.3279976 97.341297,38.814 Z M96.657297,38.814 C96.657297,38.4419981 96.5972976,38.0880017 96.477297,37.752 C96.3572964,37.4159983 96.1832981,37.1205013 95.955297,36.8655 C95.7272959,36.6104987 95.4497986,36.4080007 95.122797,36.258 C94.7957954,36.1079992 94.428299,36.033 94.020297,36.033 C93.612295,36.033 93.2447986,36.1079992 92.917797,36.258 C92.5907954,36.4080007 92.3132981,36.6104987 92.085297,36.8655 C91.8572959,37.1205013 91.6832976,37.4159983 91.563297,37.752 C91.4432964,38.0880017 91.383297,38.4419981 91.383297,38.814 C91.383297,39.1860019 91.4432964,39.5399983 91.563297,39.876 C91.6832976,40.2120017 91.8572959,40.5059987 92.085297,40.758 C92.3132981,41.0100013 92.5907954,41.2109993 92.917797,41.361 C93.2447986,41.5110007 93.612295,41.586 94.020297,41.586 C94.428299,41.586 94.7957954,41.5110007 95.122797,41.361 C95.4497986,41.2109993 95.7272959,41.0100013 95.955297,40.758 C96.1832981,40.5059987 96.3572964,40.2120017 96.477297,39.876 C96.5972976,39.5399983 96.657297,39.1860019 96.657297,38.814 Z M99.1295782,42 L99.1295782,35.628 L99.7775782,35.628 L99.7775782,38.337 C99.945579,38.337 100.106077,38.3429999 100.259078,38.355 C100.412079,38.3670001 100.563577,38.3819999 100.713578,38.4 L103.134578,35.628 L103.845578,35.628 L101.397578,38.553 C102.147582,38.7810011 102.728076,39.1844971 103.139078,39.7635 C103.55008,40.3425029 103.824578,41.0879954 103.962578,42 L103.251578,42 C103.155578,41.4539973 103.019079,40.984502 102.842078,40.5915 C102.665077,40.198498 102.43708,39.8775012 102.158078,39.6285 C101.879077,39.3794988 101.54458,39.1980006 101.154578,39.084 C100.764576,38.9699994 100.305581,38.9189999 99.7775782,38.931 L99.7775782,42 L99.1295782,42 Z M105.741859,42 L105.030859,42 L107.784859,35.628 L108.414859,35.628 L111.150859,42 L110.430859,42 L109.728859,40.326 L106.434859,40.326 L105.741859,42 Z M106.677859,39.732 L109.485859,39.732 L108.081859,36.348 L106.677859,39.732 Z M114.568141,42 L113.920141,42 L113.920141,36.204 L111.787141,36.204 L111.787141,35.628 L116.701141,35.628 L116.701141,36.204 L114.568141,36.204 L114.568141,42 Z M123.457422,40.974 C123.349421,41.1360008 123.218923,41.2889993 123.065922,41.433 C122.912921,41.5770007 122.735923,41.7029995 122.534922,41.811 C122.333921,41.9190005 122.111923,42.0044997 121.868922,42.0675 C121.625921,42.1305003 121.360423,42.162 121.072422,42.162 C120.592419,42.162 120.148424,42.0780008 119.740422,41.91 C119.33242,41.7419992 118.981423,41.5095015 118.687422,41.2125 C118.39342,40.9154985 118.163923,40.563002 117.998922,40.155 C117.833921,39.746998 117.751422,39.3000024 117.751422,38.814 C117.751422,38.3279976 117.835421,37.881002 118.003422,37.473 C118.171423,37.064998 118.40392,36.7125015 118.700922,36.4155 C118.997923,36.1184985 119.34892,35.8860008 119.753922,35.718 C120.158924,35.5499992 120.598419,35.466 121.072422,35.466 C121.306423,35.466 121.535921,35.4899998 121.760922,35.538 C121.985923,35.5860002 122.197421,35.6534996 122.395422,35.7405 C122.593423,35.8275004 122.773421,35.9324994 122.935422,36.0555 C123.097423,36.1785006 123.232421,36.3179992 123.340422,36.474 L122.800422,36.87 C122.734421,36.7679995 122.645922,36.6660005 122.534922,36.564 C122.423921,36.4619995 122.293423,36.3720004 122.143422,36.294 C121.993421,36.2159996 121.829923,36.1530002 121.652922,36.105 C121.475921,36.0569998 121.285423,36.033 121.081422,36.033 C120.66742,36.033 120.296923,36.1079992 119.969922,36.258 C119.64292,36.4080007 119.365423,36.6104987 119.137422,36.8655 C118.909421,37.1205013 118.735422,37.4159983 118.615422,37.752 C118.495421,38.0880017 118.435422,38.4419981 118.435422,38.814 C118.435422,39.1860019 118.496921,39.5399983 118.619922,39.876 C118.742922,40.2120017 118.918421,40.5074987 119.146422,40.7625 C119.374423,41.0175013 119.65192,41.2199993 119.978922,41.37 C120.305923,41.5200008 120.67342,41.595 121.081422,41.595 C121.447424,41.595 121.79542,41.5200008 122.125422,41.37 C122.455423,41.2199993 122.731421,40.9800016 122.953422,40.65 L123.457422,40.974 Z M125.011703,42 L125.011703,35.628 L125.659703,35.628 L125.659703,38.337 C125.827704,38.337 125.988202,38.3429999 126.141203,38.355 C126.294204,38.3670001 126.445702,38.3819999 126.595703,38.4 L129.016703,35.628 L129.727703,35.628 L127.279703,38.553 C128.029707,38.7810011 128.610201,39.1844971 129.021203,39.7635 C129.432205,40.3425029 129.706702,41.0879954 129.844703,42 L129.133703,42 C129.037703,41.4539973 128.901204,40.984502 128.724203,40.5915 C128.547202,40.198498 128.319204,39.8775012 128.040203,39.6285 C127.761202,39.3794988 127.426705,39.1980006 127.036703,39.084 C126.646701,38.9699994 126.187706,38.9189999 125.659703,38.931 L125.659703,42 L125.011703,42 Z M137.968984,38.814 C137.968984,39.3000024 137.884985,39.746998 137.716984,40.155 C137.548983,40.563002 137.316486,40.9154985 137.019484,41.2125 C136.722483,41.5095015 136.371486,41.7419992 135.966484,41.91 C135.561482,42.0780008 135.121987,42.162 134.647984,42.162 C134.173982,42.162 133.734486,42.0780008 133.329484,41.91 C132.924482,41.7419992 132.573486,41.5095015 132.276484,41.2125 C131.979483,40.9154985 131.746985,40.563002 131.578984,40.155 C131.410983,39.746998 131.326984,39.3000024 131.326984,38.814 C131.326984,38.3279976 131.410983,37.881002 131.578984,37.473 C131.746985,37.064998 131.979483,36.7125015 132.276484,36.4155 C132.573486,36.1184985 132.924482,35.8860008 133.329484,35.718 C133.734486,35.5499992 134.173982,35.466 134.647984,35.466 C135.121987,35.466 135.561482,35.5499992 135.966484,35.718 C136.371486,35.8860008 136.722483,36.1184985 137.019484,36.4155 C137.316486,36.7125015 137.548983,37.064998 137.716984,37.473 C137.884985,37.881002 137.968984,38.3279976 137.968984,38.814 Z M137.284984,38.814 C137.284984,38.4419981 137.224985,38.0880017 137.104984,37.752 C136.984984,37.4159983 136.810985,37.1205013 136.582984,36.8655 C136.354983,36.6104987 136.077486,36.4080007 135.750484,36.258 C135.423483,36.1079992 135.055986,36.033 134.647984,36.033 C134.239982,36.033 133.872486,36.1079992 133.545484,36.258 C133.218483,36.4080007 132.940985,36.6104987 132.712984,36.8655 C132.484983,37.1205013 132.310985,37.4159983 132.190984,37.752 C132.070984,38.0880017 132.010984,38.4419981 132.010984,38.814 C132.010984,39.1860019 132.070984,39.5399983 132.190984,39.876 C132.310985,40.2120017 132.484983,40.5059987 132.712984,40.758 C132.940985,41.0100013 133.218483,41.2109993 133.545484,41.361 C133.872486,41.5110007 134.239982,41.586 134.647984,41.586 C135.055986,41.586 135.423483,41.5110007 135.750484,41.361 C136.077486,41.2109993 136.354983,41.0100013 136.582984,40.758 C136.810985,40.5059987 136.984984,40.2120017 137.104984,39.876 C137.224985,39.5399983 137.284984,39.1860019 137.284984,38.814 Z M140.405265,41.424 L143.816265,41.424 L143.816265,42 L139.757265,42 L139.757265,35.628 L143.708265,35.628 L143.708265,36.204 L140.405265,36.204 L140.405265,38.4 L143.492265,38.4 L143.492265,38.967 L140.405265,38.967 L140.405265,41.424 Z M77.9634534,53.814 C77.9634534,54.3000024 77.8794542,54.746998 77.7114534,55.155 C77.5434526,55.563002 77.3109549,55.9154985 77.0139534,56.2125 C76.7169519,56.5095015 76.3659554,56.7419992 75.9609534,56.91 C75.5559514,57.0780008 75.1164558,57.162 74.6424534,57.162 C74.168451,57.162 73.7289554,57.0780008 73.3239534,56.91 C72.9189514,56.7419992 72.5679549,56.5095015 72.2709534,56.2125 C71.9739519,55.9154985 71.7414542,55.563002 71.5734534,55.155 C71.4054526,54.746998 71.3214534,54.3000024 71.3214534,53.814 C71.3214534,53.3279976 71.4054526,52.881002 71.5734534,52.473 C71.7414542,52.064998 71.9739519,51.7125015 72.2709534,51.4155 C72.5679549,51.1184985 72.9189514,50.8860008 73.3239534,50.718 C73.7289554,50.5499992 74.168451,50.466 74.6424534,50.466 C75.1164558,50.466 75.5559514,50.5499992 75.9609534,50.718 C76.3659554,50.8860008 76.7169519,51.1184985 77.0139534,51.4155 C77.3109549,51.7125015 77.5434526,52.064998 77.7114534,52.473 C77.8794542,52.881002 77.9634534,53.3279976 77.9634534,53.814 Z M77.2794534,53.814 C77.2794534,53.4419981 77.219454,53.0880017 77.0994534,52.752 C76.9794528,52.4159983 76.8054545,52.1205013 76.5774534,51.8655 C76.3494523,51.6104987 76.071955,51.4080007 75.7449534,51.258 C75.4179518,51.1079992 75.0504554,51.033 74.6424534,51.033 C74.2344514,51.033 73.866955,51.1079992 73.5399534,51.258 C73.2129518,51.4080007 72.9354545,51.6104987 72.7074534,51.8655 C72.4794523,52.1205013 72.305454,52.4159983 72.1854534,52.752 C72.0654528,53.0880017 72.0054534,53.4419981 72.0054534,53.814 C72.0054534,54.1860019 72.0654528,54.5399983 72.1854534,54.876 C72.305454,55.2120017 72.4794523,55.5059987 72.7074534,55.758 C72.9354545,56.0100013 73.2129518,56.2109993 73.5399534,56.361 C73.866955,56.5110008 74.2344514,56.586 74.6424534,56.586 C75.0504554,56.586 75.4179518,56.5110008 75.7449534,56.361 C76.071955,56.2109993 76.3494523,56.0100013 76.5774534,55.758 C76.8054545,55.5059987 76.9794528,55.2120017 77.0994534,54.876 C77.219454,54.5399983 77.2794534,54.1860019 77.2794534,53.814 Z M79.7517346,57 L79.7517346,50.628 L83.3697346,50.628 L83.3697346,51.222 L80.3997346,51.222 L80.3997346,53.391 L81.6957346,53.391 C82.0197362,53.391 82.3137333,53.4314996 82.5777346,53.5125 C82.8417359,53.5935004 83.0682337,53.7104992 83.2572346,53.8635 C83.4462355,54.0165008 83.5917341,54.2054989 83.6937346,54.4305 C83.7957351,54.6555011 83.8467346,54.9089986 83.8467346,55.191 C83.8467346,55.4790014 83.7942351,55.7339989 83.6892346,55.956 C83.5842341,56.1780011 83.4372355,56.3669992 83.2482346,56.523 C83.0592337,56.6790008 82.8312359,56.7974996 82.5642346,56.8785 C82.2972333,56.9595004 82.0017362,57 81.6777346,57 L79.7517346,57 Z M81.6417346,56.406 C82.1517371,56.406 82.5432332,56.2965011 82.8162346,56.0775 C83.089236,55.8584989 83.2257346,55.5600019 83.2257346,55.182 C83.2257346,54.785998 83.084736,54.487501 82.8027346,54.2865 C82.5207332,54.085499 82.1337371,53.985 81.6417346,53.985 L80.3997346,53.985 L80.3997346,56.406 L81.6417346,56.406 Z M87.3180158,50.628 L87.3180158,53.229 L88.4430158,53.229 C88.7670174,53.229 89.0610145,53.2739995 89.3250158,53.364 C89.5890171,53.4540004 89.8155149,53.5799992 90.0045158,53.742 C90.1935167,53.9040008 90.3390153,54.1004988 90.4410158,54.3315 C90.5430163,54.5625012 90.5940158,54.8219986 90.5940158,55.11 C90.5940158,55.3980014 90.5310164,55.6574988 90.4050158,55.8885 C90.2790152,56.1195012 90.1035169,56.3174992 89.8785158,56.4825 C89.6535147,56.6475008 89.3850174,56.7749996 89.0730158,56.865 C88.7610142,56.9550005 88.4190177,57 88.0470158,57 L86.6700158,57 L86.6700158,51.222 L84.9330158,51.222 L84.9330158,50.628 L87.3180158,50.628 Z M87.3180158,56.424 L88.3890158,56.424 C88.8930183,56.424 89.2785145,56.2980013 89.5455158,56.046 C89.8125171,55.7939987 89.9460158,55.4790019 89.9460158,55.101 C89.9460158,54.704998 89.8095172,54.3885012 89.5365158,54.1515 C89.2635144,53.9144988 88.8810183,53.796 88.3890158,53.796 L87.3180158,53.796 L87.3180158,56.424 Z M92.976297,56.424 L96.387297,56.424 L96.387297,57 L92.328297,57 L92.328297,50.628 L96.279297,50.628 L96.279297,51.204 L92.976297,51.204 L92.976297,53.4 L96.063297,53.4 L96.063297,53.967 L92.976297,53.967 L92.976297,56.424 Z M97.8965782,57 L97.8965782,58.251 L97.2485782,58.251 L97.2485782,56.406 L98.0405782,56.406 L100.209578,50.628 L100.839578,50.628 L102.990578,56.406 L103.782578,56.406 L103.782578,58.251 L103.134578,58.251 L103.134578,57 L97.8965782,57 Z M98.6885782,56.406 L102.324578,56.406 L100.506578,51.348 L98.6885782,56.406 Z M105.732859,56.055 L109.440859,50.628 L110.250859,50.628 L110.250859,57 L109.602859,57 L109.602859,51.519 L109.584859,51.519 L105.876859,57 L105.066859,57 L105.066859,50.628 L105.714859,50.628 L105.714859,56.055 L105.732859,56.055 Z M112.381141,50.628 L113.029141,50.628 L113.029141,53.391 L116.503141,53.391 L116.503141,50.628 L117.151141,50.628 L117.151141,57 L116.503141,57 L116.503141,53.985 L113.029141,53.985 L113.029141,57 L112.381141,57 L112.381141,50.628 Z M119.929422,56.424 L123.340422,56.424 L123.340422,57 L119.281422,57 L119.281422,50.628 L123.232422,50.628 L123.232422,51.204 L119.929422,51.204 L119.929422,53.4 L123.016422,53.4 L123.016422,53.967 L119.929422,53.967 L119.929422,56.424 Z M125.047703,50.628 L125.695703,50.628 L125.695703,53.391 L129.169703,53.391 L129.169703,50.628 L129.817703,50.628 L129.817703,57 L129.169703,57 L129.169703,53.985 L125.695703,53.985 L125.695703,57 L125.047703,57 L125.047703,50.628 Z M132.613984,56.055 L136.321984,50.628 L137.131984,50.628 L137.131984,57 L136.483984,57 L136.483984,51.519 L136.465984,51.519 L132.757984,57 L131.947984,57 L131.947984,50.628 L132.595984,50.628 L132.595984,56.055 L132.613984,56.055 Z M139.910265,56.424 L143.321265,56.424 L143.321265,57 L139.262265,57 L139.262265,50.628 L143.213265,50.628 L143.213265,51.204 L139.910265,51.204 L139.910265,53.4 L142.997265,53.4 L142.997265,53.967 L139.910265,53.967 L139.910265,56.424 Z" id="АДВОКАТСКОЕ-ОБЪЕДИНЕ" fill="#101010"></path>
                <path d="M91.54472,9.89 C91.54472,11.5020081 91.245723,12.8604945 90.64772,13.9655 C90.049717,15.0705055 89.2437251,15.9609966 88.22972,16.637 C87.215715,17.3130034 86.0457267,17.8069984 84.71972,18.119 C83.3937134,18.4310016 82.0157272,18.587 80.58572,18.587 L77.27072,18.587 L77.27072,29 L70.60172,29 L70.60172,1.388 L80.74172,1.388 C82.2497276,1.388 83.6602135,1.53749851 84.97322,1.8365 C86.2862266,2.13550149 87.4302152,2.61649669 88.40522,3.2795 C89.3802249,3.94250332 90.1472172,4.81349461 90.70622,5.8925 C91.2652228,6.97150539 91.54472,8.30399207 91.54472,9.89 Z M84.87572,9.929 C84.87572,9.27899675 84.7457213,8.74600208 84.48572,8.33 C84.2257187,7.91399792 83.8747222,7.58900117 83.43272,7.355 C82.9907178,7.12099883 82.4902228,6.96500039 81.93122,6.887 C81.3722172,6.80899961 80.793723,6.77 80.19572,6.77 L77.27072,6.77 L77.27072,13.283 L80.07872,13.283 C80.7027232,13.283 81.3007172,13.2310005 81.87272,13.127 C82.4447229,13.0229995 82.9582178,12.8410013 83.41322,12.581 C83.8682223,12.3209987 84.2257187,11.9765021 84.48572,11.5475 C84.7457213,11.1184979 84.87572,10.5790032 84.87572,9.929 Z M100.595573,1.388 L106.367573,15.116 L111.905573,1.388 L119.042573,1.388 L109.643573,22.994 C109.227571,23.9560048 108.753076,24.8529958 108.220073,25.685 C107.687071,26.5170042 107.050077,27.231997 106.309073,27.83 C105.56807,28.428003 104.690578,28.9024982 103.676573,29.2535 C102.662568,29.6045018 101.46658,29.78 100.088573,29.78 C98.8665672,29.78 97.8590773,29.682501 97.0660733,29.4875 C96.2730694,29.292499 95.6230759,29.0585014 95.1160733,28.7855 C94.6090708,28.5124986 94.2060748,28.2200016 93.9070733,27.908 C93.6080718,27.5959984 93.3415745,27.3230012 93.1075733,27.089 L97.2415733,22.448 C97.579575,22.8120018 98.0085707,23.195498 98.5285733,23.5985 C99.0485759,24.001502 99.64657,24.203 100.322573,24.203 C100.842576,24.203 101.310571,24.105501 101.726573,23.9105 C102.142575,23.715499 102.532572,23.3840023 102.896573,22.916 L93.1855733,1.388 L100.595573,1.388 Z M138.740427,29 L132.695427,19.25 L126.884427,29 L118.928427,29 L128.600427,14.414 L119.708427,1.388 L127.742427,1.388 L132.890427,9.968 L137.960427,1.388 L145.721427,1.388 L136.985427,14.414 L146.969427,29 L138.740427,29 Z" id="РУХ" fill="#101010"></path>
            </g>
        </g>
    </g>
</svg>
